<svg width="1000" height="751" viewBox="0 0 1000 751" fill="none" xmlns="http://www.w3.org/2000/svg">
<path d="M488.327 5.44713C493.15 0.90228 500.607 -2.25935 506.447 2.03143C516.954 9.25803 526.262 18.3195 536.144 26.5059C685.748 153.282 835.091 280.396 984.748 407.116C990.953 412.479 998.853 417.504 1000 426.904C999.739 435.571 993.508 444.209 985.008 444.039C952.678 444.491 920.322 443.983 887.966 444.18C879.467 443.503 871.697 451.435 872.192 460.722C871.28 550.293 872.114 639.891 872.166 729.49C872.062 735.248 871.749 741.769 867.656 746.088C862.937 751.367 855.584 750.577 849.379 751C760.628 750.435 671.851 751 583.1 750.689C573.793 751.593 565.997 742.249 567.118 732.341C567.04 655.982 567.144 579.622 567.066 503.263C567.248 496.432 566.544 487.822 572.671 483.588C589.462 470.631 595.146 444.66 616.004 437.18C637.227 427.441 657.955 441.668 677.274 449.854C693.491 458.323 711.951 455.5 729.367 455.782C735.833 455.387 742.69 456.488 748.843 453.806C754.032 451.181 755.101 444.35 755.075 438.789C754.553 391.646 754.684 344.476 754.214 297.334C754.97 289.768 749.756 282.175 742.43 282.429C726.656 282.147 710.856 281.751 695.108 282.796C669.531 286.296 647.891 310.912 620.932 304.137C605.653 301.709 596.502 285.562 581.406 282.824C575.148 281.384 568.682 281.328 562.321 281.328C529.313 281.977 496.331 281.949 463.323 282.147C434.539 282.034 404.895 280.876 377.31 291.377C328.476 308.992 288.846 347.045 254.717 387.553C239.1 407.511 223.795 427.92 210.524 449.798C203.38 460.186 215.191 475.289 225.933 470.857C236.675 465.691 245.513 456.883 255.812 450.786C282.354 433.961 309.756 417.306 339.948 409.713C364.639 403.248 392.119 416.177 404.634 440.059C410.917 452.226 412.795 466.34 418.426 478.817C421.086 484.491 427.604 484.886 432.558 486.806C432.662 568.613 432.479 650.449 432.61 732.256C433.262 742.108 426.04 751.48 416.601 750.689C325.4 750.774 234.198 750.915 142.996 750.633C133.584 751.48 126.831 741.995 127.587 732.369C127.196 643.843 127.666 555.289 127.587 466.763C128.161 458.577 126.284 448.528 118.253 445.422C110.067 443.192 101.515 444.463 93.1717 444.18C66.2648 443.898 39.3058 444.745 12.399 443.757C-0.115816 442.402 -4.67851 422.359 5.88086 414.766C166.618 278.223 327.511 141.877 488.327 5.44713Z" fill="white"/>
</svg>
