<svg width="1000" height="891" viewBox="0 0 1000 891" fill="none" xmlns="http://www.w3.org/2000/svg">
<path d="M0 349.643V279.33H1000V347.689H929.688C896.875 347.689 887.37 368.523 886.719 378.939V472.689H820.312C816.406 454.46 807.031 410.971 800.781 382.846C794.531 354.721 774.74 347.689 765.625 347.689H240.234C210.547 347.689 199.219 367.221 197.266 376.986L177.734 472.689H109.375V375.033C109.375 354.721 87.2396 349.643 76.1719 349.643H0Z" fill="white"/>
<path d="M451.171 224.609H328.124L373.046 0H460.937L451.171 224.609Z" fill="white"/>
<path d="M296.874 410.156H443.358L429.687 890.625H197.265L296.874 410.156Z" fill="white"/>
<path d="M548.835 224.609H671.881L626.959 0H539.069L548.835 224.609Z" fill="white"/>
<path d="M703.131 410.156H556.647L570.319 890.625H802.741L703.131 410.156Z" fill="white"/>
</svg>
